<?xml version="1.0" standalone="no"?>
<!DOCTYPE svg PUBLIC "-//W3C//DTD SVG 20010904//EN"
 "http://www.w3.org/TR/2001/REC-SVG-20010904/DTD/svg10.dtd">
<svg version="1.0" xmlns="http://www.w3.org/2000/svg"
 width="2250.000000pt" height="2250.000000pt" viewBox="0 0 2250.000000 2250.000000"
 preserveAspectRatio="xMidYMid meet">

<g transform="translate(0.000000,2250.000000) scale(0.100000,-0.100000)"
fill="#000000" stroke="none">
<path d="M12358 17593 c-89 -67 -331 -310 -420 -423 -187 -236 -361 -551 -454
-822 l-47 -138 -186 0 -187 0 -23 113 c-94 442 -309 843 -629 1174 -82 85
-134 102 -208 67 -52 -25 -77 -74 -72 -139 4 -51 8 -57 86 -140 216 -228 373
-484 470 -767 43 -123 86 -294 78 -307 -3 -4 -90 -11 -193 -15 -103 -4 -201
-9 -218 -11 -16 -2 -70 -6 -120 -10 -768 -50 -1696 -213 -2470 -434 -1939
-552 -3550 -1588 -4420 -2842 -387 -558 -630 -1139 -729 -1742 -32 -194 -33
-207 -47 -422 -28 -459 36 -942 188 -1409 434 -1338 1597 -2520 3299 -3356
730 -358 1523 -630 2419 -830 142 -32 566 -112 685 -130 41 -6 119 -18 173
-26 83 -12 197 -27 462 -59 374 -46 736 -60 1535 -60 608 0 764 4 1065 30
1521 129 2960 521 4170 1135 1626 827 2738 1974 3170 3273 243 730 267 1494
69 2230 -350 1298 -1368 2458 -2919 3327 -1265 709 -2853 1170 -4494 1305
-251 20 -473 35 -568 36 -46 1 -83 3 -83 4 0 23 78 214 135 330 152 310 364
582 628 804 110 92 131 142 96 220 -23 52 -70 81 -131 81 -39 0 -55 -7 -110
-47z m-992 -1710 c-49 -382 -47 -683 6 -740 50 -54 111 -67 174 -37 35 17 74
69 74 98 0 30 89 238 142 331 87 154 166 251 263 323 l60 44 90 -6 c49 -4 113
-9 140 -11 28 -3 104 -10 170 -15 598 -53 1347 -186 1946 -344 2546 -676 4426
-2108 5018 -3821 130 -376 212 -832 181 -1007 -68 -388 -254 -898 -477 -1313
-292 -542 -624 -978 -1099 -1445 -1226 -1204 -3026 -2022 -5314 -2414 -470
-81 -1086 -160 -1490 -191 -41 -3 -95 -8 -120 -10 -94 -10 -471 -34 -615 -40
-82 -4 -163 -8 -180 -10 -45 -6 -600 -20 -765 -19 -123 0 -182 6 -395 43 -678
115 -1201 245 -1803 446 -2079 695 -3634 1938 -4235 3385 -188 452 -272 844
-284 1315 -7 258 4 413 43 655 178 1083 857 2094 1967 2931 1216 917 2886
1551 4712 1788 424 56 908 96 1145 96 l85 0 5 -150 c3 -92 10 -158 17 -172 20
-34 76 -63 123 -63 67 0 103 29 145 116 56 119 121 199 210 258 59 39 69 35
61 -21z"/>
<path d="M14545 12690 c-86 -13 -119 -62 -130 -191 -11 -151 -73 -312 -159
-421 -285 -359 -990 -463 -1478 -217 -259 130 -507 387 -651 675 -48 95 -83
124 -150 124 -64 0 -107 -24 -130 -73 -33 -68 -23 -103 69 -264 91 -158 170
-261 302 -397 234 -238 512 -393 807 -450 44 -9 94 -18 110 -22 54 -10 388
-13 455 -4 490 71 830 284 1004 628 56 110 88 233 111 425 7 62 -8 117 -42
149 -37 35 -69 46 -118 38z"/>
<path d="M10472 12670 c-42 -26 -58 -65 -66 -162 -42 -480 -440 -778 -1041
-779 -355 -1 -656 116 -908 351 -134 126 -251 280 -337 446 -57 110 -85 134
-156 134 -64 0 -104 -22 -130 -72 -28 -54 -14 -113 52 -232 369 -663 988 -991
1705 -902 324 40 585 156 785 348 192 184 298 419 311 690 l6 117 -40 41 c-37
37 -45 40 -94 40 -37 0 -65 -7 -87 -20z"/>
<path d="M6860 11364 c-14 -2 -59 -9 -100 -15 -159 -23 -356 -102 -510 -204
-94 -63 -271 -238 -332 -330 -98 -149 -170 -319 -207 -488 -37 -168 -24 -245
48 -282 64 -33 162 -9 192 47 7 12 18 59 26 103 32 188 117 386 219 509 52 63
74 79 74 55 0 -21 176 -374 259 -520 446 -778 1067 -1400 1866 -1869 171 -100
551 -288 740 -366 995 -409 2118 -574 3190 -469 902 89 1712 361 2384 802 744
488 1273 1165 1608 2058 24 66 46 122 49 124 6 6 28 -24 73 -99 38 -64 70
-144 91 -227 29 -115 158 -157 240 -78 43 41 50 87 29 175 -49 208 -186 423
-352 556 -206 164 -478 243 -745 216 -122 -12 -156 -25 -196 -72 -49 -58 -28
-162 40 -207 22 -14 41 -17 88 -13 34 3 120 4 191 4 114 0 140 -4 213 -28 45
-15 82 -30 82 -34 0 -15 -78 -238 -119 -342 -52 -129 -173 -381 -243 -504
-317 -561 -777 -1033 -1334 -1370 -611 -369 -1314 -592 -2149 -681 -201 -22
-769 -31 -990 -16 -1340 90 -2538 549 -3470 1330 -117 98 -441 421 -537 536
-244 293 -465 631 -637 972 -65 130 -141 302 -141 318 0 15 146 75 245 101 48
12 125 19 247 23 158 5 180 8 205 27 61 45 79 127 41 184 -46 67 -62 72 -215
76 -76 1 -149 1 -163 -2z"/>
<path d="M10648 6823 c-41 -26 -71 -87 -65 -134 12 -88 50 -114 225 -158 464
-114 941 -130 1402 -45 171 32 289 61 318 80 37 24 62 74 62 126 0 39 -6 54
-31 83 -50 56 -87 62 -215 32 -274 -65 -471 -88 -744 -86 -286 2 -447 22 -704
85 -154 38 -208 41 -248 17z"/>
</g>
</svg>
